<svg xmlns="http://www.w3.org/2000/svg" viewBox="0 0 57.42 57.42"><defs><style>.cls-1{fill:#a8619c;}.cls-2{fill:#f48de4;}.cls-3{fill:none;stroke-width:2px;}.cls-3,.cls-4,.cls-5{stroke:#fff;stroke-miterlimit:10;}.cls-4,.cls-5{fill:#fff;}.cls-4{stroke-linecap:square;}</style></defs><g id="Warstwa_2" data-name="Warstwa 2"><g id="background"><g id="miniatura_wstyd"><rect class="cls-1" width="57.42" height="57.42" rx="16.8"/><rect class="cls-2" y="1.18" width="52.68" height="52.68" rx="16.8"/><path class="cls-3" d="M20.12,16.58s-3.81,4.72-8.72,5"/><path class="cls-3" d="M32.56,16.58s3.81,4.72,8.72,5"/><path class="cls-4" d="M30.08,33.92H23.29a3.88,3.88,0,0,1,6.79,0Z"/><path class="cls-5" d="M21.81,25a2.18,2.18,0,1,1-4.25-1s0,0,0-.07h4.21A2,2,0,0,1,21.81,25Z"/><path class="cls-5" d="M35.48,26.62A2.17,2.17,0,0,1,32.86,25a2,2,0,0,1,0-1.07h4.21s0,0,0,.07A2.18,2.18,0,0,1,35.48,26.62Z"/></g></g></g></svg>