<svg xmlns="http://www.w3.org/2000/svg" viewBox="0 0 57.42 57.42"><defs><style>.cls-1{fill:#71a861;}.cls-2{fill:#a4f48d;}.cls-3,.cls-4{fill:#fff;}.cls-4,.cls-5{stroke:#fff;stroke-miterlimit:10;}.cls-5{fill:none;stroke-width:2px;}</style></defs><g id="Warstwa_2" data-name="Warstwa 2"><g id="background"><g id="miniatura_cierpienie"><rect class="cls-1" width="57.42" height="57.42" rx="16.8"/><rect class="cls-2" x="0.04" y="1.47" width="52.68" height="52.68" rx="16.8"/><path class="cls-3" d="M38,29.42h0L38,29.33h0l-.1-.18L36.64,27,35.4,29.15l-.16.27h0a1.35,1.35,0,0,0-.12.57,1.5,1.5,0,0,0,3,0A1.35,1.35,0,0,0,38,29.42Z"/><path class="cls-4" d="M20.88,25.92H16.6a2.25,2.25,0,0,1,0-.93,2.19,2.19,0,0,1,4.27.93Z"/><path class="cls-5" d="M20.17,18.63s-3.81,4.72-8.72,5"/><path class="cls-5" d="M32.6,18.63s3.81,4.72,8.72,5"/><path class="cls-4" d="M36.18,25.92H31.9A2.18,2.18,0,0,1,36.16,25,2.25,2.25,0,0,1,36.18,25.92Z"/><path class="cls-4" d="M31.59,36.32a6,6,0,0,0-6.32-1.79,6.74,6.74,0,0,0-2.89,1.89,6.69,6.69,0,0,1,3.4-4.27C28.1,31.22,30.43,33,31.59,36.32Z"/></g></g></g></svg>