<svg xmlns="http://www.w3.org/2000/svg" viewBox="0 0 57.42 57.42"><defs><style>.cls-1{fill:#a87561;}.cls-2{fill:#f4ab8d;}.cls-3,.cls-5{fill:#fff;}.cls-3,.cls-4,.cls-5{stroke:#fff;}.cls-3,.cls-4{stroke-miterlimit:10;}.cls-4{fill:none;stroke-width:2px;}.cls-5{stroke-linejoin:round;}</style></defs><g id="Warstwa_2" data-name="Warstwa 2"><g id="background"><g id="miniatura_ekscytacja"><rect class="cls-1" width="57.42" height="57.42" rx="16.8"/><rect class="cls-2" y="1.18" width="52.68" height="52.68" rx="16.8"/><path class="cls-3" d="M32.71,31.92a6.51,6.51,0,0,1-12.48,0Z"/><path class="cls-4" d="M20.61,16.81s-6-.64-9.69,2.64"/><path class="cls-4" d="M32.07,16.81s6-.64,9.69,2.64"/><path class="cls-5" d="M20.59,26s0,.06,0,.09a2.5,2.5,0,0,0-4.21,0,2.08,2.08,0,0,1,0-1.08,2.18,2.18,0,0,1,4.25,1Z"/><path class="cls-5" d="M36.59,26s0,.06,0,.09a2.5,2.5,0,0,0-4.21,0,2.08,2.08,0,0,1,0-1.08,2.18,2.18,0,0,1,4.25,1Z"/></g></g></g></svg>