<svg xmlns="http://www.w3.org/2000/svg" viewBox="0 0 57.42 57.42"><defs><style>.cls-1{fill:#8c8e52;}.cls-2{fill:#f1f48d;}.cls-3{fill:#fff;}.cls-3,.cls-4{stroke:#fff;stroke-miterlimit:10;}.cls-4{fill:none;stroke-width:2px;}</style></defs><g id="Warstwa_2" data-name="Warstwa 2"><g id="background"><g id="miniatura_radosc"><rect class="cls-1" width="57.42" height="57.42" rx="16.8"/><rect class="cls-2" y="1.18" width="52.68" height="52.68" rx="16.8"/><path class="cls-3" d="M31.27,32.92a3.87,3.87,0,0,1-7.41,0Z"/><path class="cls-4" d="M21.49,19.81s-6-.64-9.69,2.64"/><path class="cls-4" d="M33,19.81s6-.64,9.69,2.64"/><path class="cls-3" d="M21.7,26a1.4,1.4,0,0,1-.16.43H17.6A2.12,2.12,0,0,1,17.45,25a2.18,2.18,0,0,1,4.25,1Z"/><path class="cls-3" d="M36.84,26.42H32.9a2.23,2.23,0,0,1-.16-.43,2.19,2.19,0,1,1,4.1.43Z"/></g></g></g></svg>