<svg xmlns="http://www.w3.org/2000/svg" viewBox="0 0 597 144.04"><defs><style>.cls-1{fill:#8df4c4;}.cls-2{fill:#8df4eb;}.cls-3{fill:#8db1f4;}.cls-4{fill:#f1f48d;}.cls-5{fill:#f4ab8d;}.cls-6{fill:#f48de4;}.cls-7{fill:#4d54a3;}</style></defs><g id="Warstwa_2" data-name="Warstwa 2"><g id="background"><g id="szyld"><g id="kolory"><rect class="cls-1" x="61" y="80" width="20" height="17" rx="4.43"/><rect class="cls-2" x="22" y="44" width="20" height="17" rx="4.43"/><rect class="cls-3" width="20" height="17" rx="4.43"/><rect class="cls-4" x="515" y="80" width="20" height="17" rx="4.43"/><rect class="cls-5" x="555" y="46" width="20" height="17" rx="4.43"/><rect class="cls-6" x="577" width="20" height="17" rx="4.43"/></g><path class="cls-7" d="M141,129.87h-10v-10H111.11v10h-9.93V100a19.29,19.29,0,0,1,1.57-7.76A20.35,20.35,0,0,1,107,85.91a19.92,19.92,0,0,1,6.32-4.27,20.08,20.08,0,0,1,15.52,0,20,20,0,0,1,10.61,10.61A19.46,19.46,0,0,1,141,100Zm-10-19.89V100a9.73,9.73,0,0,0-.78-3.87A10.17,10.17,0,0,0,128.13,93,10,10,0,0,0,125,90.83a9.87,9.87,0,0,0-7.74,0,9.87,9.87,0,0,0-5.31,5.31,9.74,9.74,0,0,0-.79,3.87v10Z"/><path class="cls-7" d="M167.3,129.87a16.14,16.14,0,0,1-6.46-1.3A16.78,16.78,0,0,1,152,119.7a16.11,16.11,0,0,1-1.3-6.46v-11h-4.62V92.75h4.62V77.89h9.44V92.75h14.38v9.45H160.11v11a7.07,7.07,0,0,0,.56,2.8,7.21,7.21,0,0,0,1.53,2.27,7.35,7.35,0,0,0,2.29,1.55,7,7,0,0,0,2.81.57h7.19v9.44Z"/><path class="cls-7" d="M189.35,129.87H179.8v-52h9.55Z"/><path class="cls-7" d="M232.58,129.87h-2.29l-3.68-5.1a30,30,0,0,1-2.86,2.27,21,21,0,0,1-3.18,1.84,18.68,18.68,0,0,1-3.42,1.24,14.3,14.3,0,0,1-3.56.45,20.48,20.48,0,0,1-7.38-1.32,17.5,17.5,0,0,1-6-3.84,17.83,17.83,0,0,1-4.08-6.16,21.66,21.66,0,0,1-1.49-8.3,20.68,20.68,0,0,1,1.49-8,18.72,18.72,0,0,1,4.08-6.23,18.34,18.34,0,0,1,6-4,19,19,0,0,1,7.38-1.44,14.51,14.51,0,0,1,3.58.45A18.55,18.55,0,0,1,220.6,93a20.76,20.76,0,0,1,3.18,1.88,25.51,25.51,0,0,1,2.83,2.32l3.68-4.41h2.29ZM223,111a9.83,9.83,0,0,0-.75-3.77,11.11,11.11,0,0,0-2-3.23,10.14,10.14,0,0,0-3-2.26,8.2,8.2,0,0,0-3.66-.85,10.08,10.08,0,0,0-3.66.66,8.25,8.25,0,0,0-3,2,9.08,9.08,0,0,0-2,3.18,13.15,13.15,0,0,0,0,8.64,9.18,9.18,0,0,0,2,3.18,8.1,8.1,0,0,0,3,1.94,10.08,10.08,0,0,0,3.66.66,8.07,8.07,0,0,0,3.66-.85,10.1,10.1,0,0,0,3-2.25,11.11,11.11,0,0,0,2-3.23A9.83,9.83,0,0,0,223,111Z"/><path class="cls-7" d="M260.23,129.87H238.56v-9.44h21.67a2.39,2.39,0,0,0,2.36-2.36,1.29,1.29,0,0,0-.7-1.32,4,4,0,0,0-1.66-.31h-9.87a11.48,11.48,0,0,1-4.61-.94,11.87,11.87,0,0,1-6.27-6.32,12.06,12.06,0,0,1,0-9.24,11.74,11.74,0,0,1,6.27-6.27,11.64,11.64,0,0,1,4.61-.92h19.21v9.45H250.36a2.37,2.37,0,0,0-2.36,2.36,2.36,2.36,0,0,0,.7,1.72,2.25,2.25,0,0,0,1.66.71h9.87a12.7,12.7,0,0,1,4.58.82,11.45,11.45,0,0,1,3.75,2.27,10.67,10.67,0,0,1,2.53,3.51,10.55,10.55,0,0,1,.94,4.48,11.23,11.23,0,0,1-.94,4.6,12.4,12.4,0,0,1-2.53,3.75,11.71,11.71,0,0,1-8.33,3.45Z"/><path class="cls-7" d="M311.76,120.78a5.45,5.45,0,0,0,1.11.22,10.31,10.31,0,0,0,1.11,0,9.19,9.19,0,0,0,2.68-.38,9.7,9.7,0,0,0,2.41-1.09,9,9,0,0,0,2-1.74,9.1,9.1,0,0,0,1.44-2.27l7,7a18.73,18.73,0,0,1-3,3.37,19.08,19.08,0,0,1-3.72,2.53,18.33,18.33,0,0,1-4.2,1.58,19.34,19.34,0,0,1-11.91-.92,18.68,18.68,0,0,1-6-4.06,18.9,18.9,0,0,1-4.08-6.2A20.33,20.33,0,0,1,295,111a21,21,0,0,1,1.49-8.06A18.26,18.26,0,0,1,306.6,92.68,19.21,19.21,0,0,1,314,91.26a18.71,18.71,0,0,1,4.55.56,19.31,19.31,0,0,1,4.22,1.59A19.55,19.55,0,0,1,326.48,96a18.93,18.93,0,0,1,3.06,3.39Zm4.86-19.55a5.25,5.25,0,0,0-1.3-.32c-.43,0-.88-.07-1.34-.07a9.33,9.33,0,0,0-3.66.72,8.67,8.67,0,0,0-3,2,9.79,9.79,0,0,0-2,3.17,11.54,11.54,0,0,0-.72,4.19c0,.35,0,.74.05,1.18a12.59,12.59,0,0,0,.17,1.34,13,13,0,0,0,.3,1.3,4.3,4.3,0,0,0,.45,1.11Z"/><path class="cls-7" d="M381.59,129.87h-9.44V106.26a4.58,4.58,0,0,0-.37-1.84,4.69,4.69,0,0,0-2.55-2.55,4.76,4.76,0,0,0-1.84-.37,4.59,4.59,0,0,0-1.82.37,4.54,4.54,0,0,0-1.5,1,4.77,4.77,0,0,0-1,1.53,4.58,4.58,0,0,0-.37,1.84v23.61h-9.48V106.26a4.75,4.75,0,0,0-.36-1.84,4.85,4.85,0,0,0-1-1.53,4.66,4.66,0,0,0-1.53-1,4.72,4.72,0,0,0-1.84-.37,4.66,4.66,0,0,0-1.82.37,4.5,4.5,0,0,0-1.49,1,4.78,4.78,0,0,0-1.37,3.37v23.61H334.3V92.68h2.29l2.57,2.85a15.44,15.44,0,0,1,4.36-2.59,13.62,13.62,0,0,1,4.94-.92,13.79,13.79,0,0,1,5.09,1,10.25,10.25,0,0,1,4.36,3.36,9.94,9.94,0,0,1,2-2A10.59,10.59,0,0,1,362.23,93a11.4,11.4,0,0,1,2.56-.75,15.41,15.41,0,0,1,2.6-.23,13.91,13.91,0,0,1,5.54,1.11,14.51,14.51,0,0,1,4.51,3,14.2,14.2,0,0,1,3,4.54,14,14,0,0,1,1.11,5.55Z"/><path class="cls-7" d="M424.44,111a19.94,19.94,0,0,1-1.49,7.76,19.54,19.54,0,0,1-4.06,6.22,19.2,19.2,0,0,1-6,4.13,18.86,18.86,0,0,1-14.79,0A19,19,0,0,1,388,118.71a20,20,0,0,1-1.5-7.76,20.26,20.26,0,0,1,1.5-7.85,18.93,18.93,0,0,1,10.12-10.35,18.47,18.47,0,0,1,7.38-1.49,19.4,19.4,0,0,1,7.41,1.41,17.89,17.89,0,0,1,6,4,19,19,0,0,1,4.06,6.22A20.9,20.9,0,0,1,424.44,111Zm-9.55,0a11.19,11.19,0,0,0-.74-4.15,10.11,10.11,0,0,0-2-3.2,8.73,8.73,0,0,0-3-2,9.69,9.69,0,0,0-7.33,0,8.52,8.52,0,0,0-3,2,9.86,9.86,0,0,0-2,3.2,11.4,11.4,0,0,0-.73,4.15,10.84,10.84,0,0,0,.73,4,10.08,10.08,0,0,0,2,3.2,9.34,9.34,0,0,0,3,2.13,8.79,8.79,0,0,0,3.67.78,9.37,9.37,0,0,0,3.66-.72,9.2,9.2,0,0,0,3-2,9.78,9.78,0,0,0,2-3.2A11.24,11.24,0,0,0,414.89,111Z"/><path class="cls-7" d="M462.19,100.08l-6.95,7a9.2,9.2,0,0,0-1.42-2.62,9.39,9.39,0,0,0-2-2,8.64,8.64,0,0,0-2.45-1.22,8.87,8.87,0,0,0-2.71-.42,8.65,8.65,0,0,0-3.66.8,9.11,9.11,0,0,0-3,2.24,10.69,10.69,0,0,0-2,3.42,12.5,12.5,0,0,0-.73,4.38,9,9,0,0,0,.73,3.64,9.54,9.54,0,0,0,2,3,9.23,9.23,0,0,0,3,2,9.41,9.41,0,0,0,3.66.72,9.19,9.19,0,0,0,2.68-.38,9.7,9.7,0,0,0,2.41-1.09,9,9,0,0,0,2-1.74,9.1,9.1,0,0,0,1.44-2.27l6.95,7a18.73,18.73,0,0,1-3,3.37,19,19,0,0,1-3.71,2.53,18.59,18.59,0,0,1-4.21,1.58,19,19,0,0,1-4.53.54,18.53,18.53,0,0,1-7.38-1.48,19,19,0,0,1-10.12-10,18.37,18.37,0,0,1-1.49-7.36,21.34,21.34,0,0,1,1.49-8,20.69,20.69,0,0,1,4.08-6.47,19.17,19.17,0,0,1,6-4.36,17.34,17.34,0,0,1,7.38-1.6,18,18,0,0,1,4.57.59,18.45,18.45,0,0,1,8,4.48A17.05,17.05,0,0,1,462.19,100.08Z"/><path class="cls-7" d="M452.67,144v-9.55l5.25.07a8.12,8.12,0,0,0,3.54-.78,9.15,9.15,0,0,0,2.83-2.08,9.84,9.84,0,0,0,1.89-3,9.2,9.2,0,0,0,.7-3.57V92.68h9.69v32.44h-.07a19.59,19.59,0,0,1-.72,5,18.6,18.6,0,0,1-1.92,4.53,19.11,19.11,0,0,1-3,3.82,19.67,19.67,0,0,1-3.84,3,19.42,19.42,0,0,1-4.51,1.91,18.54,18.54,0,0,1-5,.67Zm25.46-61.46a6,6,0,0,1-.51,2.46,6.3,6.3,0,0,1-1.35,2,6.54,6.54,0,0,1-2,1.36,6.24,6.24,0,0,1-2.45.5,6.4,6.4,0,0,1-2.52-.5,6.64,6.64,0,0,1-2-1.36,6.2,6.2,0,0,1-1.37-2,6,6,0,0,1-.51-2.46,6.32,6.32,0,0,1,1.88-4.46,6.64,6.64,0,0,1,2-1.36,6.4,6.4,0,0,1,2.52-.5,6.24,6.24,0,0,1,2.45.5,6.54,6.54,0,0,1,2,1.36,6.13,6.13,0,0,1,1.35,2A6,6,0,0,1,478.13,82.58Z"/><path class="cls-7" d="M494.9,82.58a6.11,6.11,0,0,1-.5,2.46A6.53,6.53,0,0,1,493,87a6.68,6.68,0,0,1-2,1.36,6.4,6.4,0,0,1-5,0A6.47,6.47,0,0,1,484,87a6.65,6.65,0,0,1-1.35-2,6,6,0,0,1-.5-2.46,6,6,0,0,1,.5-2.45A6.32,6.32,0,0,1,486,76.76a6.4,6.4,0,0,1,5,0,6.68,6.68,0,0,1,2,1.36,6.34,6.34,0,0,1,1.37,2A6.21,6.21,0,0,1,494.9,82.58Zm-1.63,47.29h-9.55V92.68h9.55Z"/></g></g></g></svg>